PathFileType	4	(X/Y/Z)	pose_F01_0-96.trc
DataRate	CameraRate	NumFrames	NumMarkers	Units	OrigDataRate	OrigDataStartFrame	OrigNumFrames
30	30	5	21	m	30	72	96
Frame#	Time	CHip			RHip			RKnee			RAnkle			RBigToe			RSmallToe			RHeel			LHip			LKnee			LAnkle			LBigToe			LSmallToe			LHeel			Neck			Nose			RShoulder			RElbow			RWrist			LShoulder			LElbow			LWrist			
		X1	Y1	Z1	X2	Y2	Z2	X3	Y3	Z3	X4	Y4	Z4	X5	Y5	Z5	X6	Y6	Z6	X7	Y7	Z7	X8	Y8	Z8	X9	Y9	Z9	X10	Y10	Z10	X11	Y11	Z11	X12	Y12	Z12	X13	Y13	Z13	X14	Y14	Z14	X15	Y15	Z15	X16	Y16	Z16	X17	Y17	Z17	X18	Y18	Z18	X19	Y19	Z19	X20	Y20	Z20	X21	Y21	Z21	
72	2.4	-0.10857074171405136	1.8318897036906143	-0.6080172606465948	-0.11920901925951	1.8300120857351039	-0.5444499688260275	-0.11742194635063151	1.7150036678031255	-0.5132815341296182	-0.12300931277761844	1.5930459357455924	-0.455534663927138	-0.16270592133440934	1.5606356229841347	-0.44357998868741794				-0.12020469156756197	1.5845545787172806	-0.4569494174630033	-0.09632251446963398	1.8333266100075036	-0.6595485433434884	-0.07915662422588776	1.7169507084978366	-0.6592063173287798	-0.0714882313597155	1.5904059917738385	-0.6496100632014489	-0.11556252892268795	1.5631979215520595	-0.6371800939689944	-0.23607377723454284	1.498286098997022	-1.1953412835383879	-0.20645005425560328	1.5079035903113123	-1.2725348206707299	-0.09571340014277542	1.978292370315442	-0.6357647135555908	-0.127958928045775	2.0321988694200224	-0.5824425241166984	-0.10807872086620167	1.9757957691484964	-0.5556195007253023	-0.11432138093673848	1.8954895804769971	-0.5111755483302518	-0.13021694339725903	1.829751262137471	-0.49651289603431015	-1.5645172128932052	1.887073452055657	0.8810438591356903	-0.07284393148627746	1.90085992560153	-0.7294649278829874	-0.08368780140113129	1.8294097257422022	-0.7304185487946627
73	2.433333333333333	-0.11229462810302399	1.8318323792915772	-0.6000349503267772	-0.12312989336214816	1.8299455174758468	-0.5361132779199655	-0.12188955487330114	1.714614294909091	-0.5081219809276676	-0.124122059411965	1.5939694362020158	-0.4587060433809093	-0.16281379401711246	1.5608846548407875	-0.44365807173244987				-0.12035119600852201	1.5851829211487396	-0.4569804758379628	-0.0981932069227057	1.834837579915818	-0.6540154911466445	-0.08062633726518477	1.7153735731366533	-0.6532828677660818	-0.07152291636879808	1.5903325153514387	-0.6495621573179982	-0.11627203978974068	1.562454839772604	-0.6405263307131435	-0.23599629684253484	1.4974079596554228	-1.194372848679311	-0.2079566930438287	1.5093307645193785	-1.2640695073427453	-0.09862410883074463	1.9760332713062185	-0.6243657922224477	-0.13216284478258777	2.0332450032073757	-0.5782768394200539	-0.11475154705289263	1.973030152609428	-0.5397754704458211	-0.12090257124784341	1.8930743315255283	-0.5039210366958075	-0.1358356485429818	1.8280409807630615	-0.48580341379799313	-1.6101800728594062	1.886584042530636	0.9557749987809309	-0.07912161073567596	1.8977847683926852	-0.7186501096777541	-0.0881574787791272	1.8288064130353245	-0.7134604228731708
74	2.466666666666667	-0.1178005460417229	1.830204146435571	-0.5892392447454226	-0.12749981066066227	1.827950016651828	-0.5222985378395376	-0.12530121135076813	1.7124044766465014	-0.49943319150044857	-0.12590845569759399	1.593237762571257	-0.4564834002328027	-0.16305739536532982	1.5624407368172475	-0.4437248217638721				-0.12048718218627831	1.585643583789042	-0.456999663268722	-0.10464347109854678	1.8330297253576677	-0.6464608433836139	-0.08133353506734088	1.7149089671541027	-0.6440970881522575	-0.07150346122716059	1.5903285121295057	-0.6495850775794758	-0.1160420633338829	1.56070496543938	-0.6406220733197395	-0.2359856573922475	1.4979219395912318	-1.1943306413181465	-0.20563361683331216	1.5083282521681363	-1.2677877308177086	-0.10051739085739508	1.976547139596554	-0.6104133020587561	-0.13634638208879551	2.033087307384856	-0.5736628103563325	-0.11628979372505369	1.9712755504544834	-0.5248662761835292	-0.12603423219985077	1.890577726606894	-0.49328656259114234	-0.1410426953441601	1.823921124515029	-0.4750963203594637	-1.6364406636966116	1.8883702681004404	0.9978751020079931	-0.08304744262331562	1.8986902408247566	-0.7108508785168999	-0.09437789296551861	1.8283853768838074	-0.7028638132248965
75	2.5	-0.12054615843123237	1.8283753024584104	-0.5689106744591362	-0.13128498085124415	1.827486067079666	-0.517316317227493	-0.124183768703591	1.7142012908176756	-0.4877173925761097	-0.12473222517462743	1.591793419656464	-0.45357980774822965	-0.16282849710147065	1.560991754720104	-0.4435667292627653				-0.1203913443920784	1.5853601733720062	-0.4570100418508399	-0.11008373415177666	1.8300801144812933	-0.6356006365284927	-0.08808416366027215	1.714661636787029	-0.6283712490183766	-0.07156574205814442	1.590522336641009	-0.6495210110072628	-0.11623693024414275	1.561682120359639	-0.6403935292958617	-0.23606169224578621	1.4989646556795664	-1.1951769434730621	-0.20558713836034198	1.507000289012554	-1.2680484404876855	-0.1061244426859612	1.973324658725102	-0.5996548874925413	-0.14060866824816337	2.032863973197673	-0.5693839372380755	-0.12164402756797242	1.969615888169368	-0.514413713983705	-0.1340836383126619	1.890987025616542	-0.483639695450751	-0.14599905541862546	1.8248200161247514	-0.46483282325347625	-1.6511111790496424	1.8881882996776806	1.0205264642467278	-0.08412598705836975	1.8975313452052054	-0.7047120433806153	-0.0947507366899002	1.8269385446557964	-0.6939553042681791
76	2.533333333333333	-0.126008225846036	1.827599953798818	-0.5582101167552241	-0.14058149817830215	1.8269346179044443	-0.5023256695165792	-0.1256764771207794	1.7102786731537498	-0.4722171392142853	-0.12465243261851364	1.5908225486649101	-0.45344745169316053	-0.16307328731619808	1.5620512083411098	-0.44361153219729055				-0.1224007223347494	1.5853000301163847	-0.45478354902607687	-0.1104011977621964	1.829438543719666	-0.6143892621765772	-0.091641043863099	1.7143754343678275	-0.6200544775291602	-0.07155515643233695	1.5903132196277712	-0.649501318197637	-0.11531941572589488	1.5618103150702294	-0.6372418165538236	-0.23591261691696727	1.4982215399383993	-1.1944534758686967	-0.2054019583754097	1.5098469005982798	-1.2677521757559773	-0.11154641669180945	1.9732777504598702	-0.5892500090648649	-0.144720666648295	2.032747268272808	-0.5647081549863168	-0.12658520542611235	1.971491293476916	-0.5041687280298506	-0.13304903849626326	1.894931467066571	-0.47168765515531125	-0.15066700192591945	1.8314234085547727	-0.45553996149852455	-1.6641707481839216	1.8858269531553553	1.040960279102648	-0.08483367175478719	1.8978949326900816	-0.6840148396809336	-0.10259505281047292	1.829035256432006	-0.6812694688164697
